<?xml version="1.0" standalone="no"?>
<!DOCTYPE svg PUBLIC "-//W3C//DTD SVG 20010904//EN"
 "http://www.w3.org/TR/2001/REC-SVG-20010904/DTD/svg10.dtd">
<svg version="1.0" xmlns="http://www.w3.org/2000/svg"
 width="192.000000pt" height="192.000000pt" viewBox="0 0 192.000000 192.000000"
 preserveAspectRatio="xMidYMid meet">
<metadata>
Created by potrace 1.11, written by Peter Selinger 2001-2013
</metadata>
<g transform="translate(0.000000,192.000000) scale(0.100000,-0.100000)"
fill="#000000" stroke="none">
<path d="M0 960 l0 -960 960 0 960 0 0 960 0 960 -960 0 -960 0 0 -960z m1437
597 c-3 -7 -161 -245 -351 -529 -190 -284 -349 -523 -352 -532 -6 -14 28 -16
345 -16 l351 0 0 -60 0 -60 -470 0 c-466 0 -471 0 -460 20 6 11 166 251 355
534 190 283 345 517 345 520 0 3 -157 6 -350 6 l-350 0 0 65 0 65 471 0 c383
0 470 -2 466 -13z"/>
</g>
</svg>
